<?xml version="1.0" encoding="UTF-8"?>
<!DOCTYPE svg PUBLIC "-//W3C//DTD SVG 1.1//EN" "http://www.w3.org/Graphics/SVG/1.1/DTD/svg11.dtd">
<!-- Creator: CorelDRAW -->
<svg xmlns="http://www.w3.org/2000/svg" xml:space="preserve" width="1000px" height="1500px" shape-rendering="geometricPrecision" text-rendering="geometricPrecision" image-rendering="optimizeQuality" fill-rule="evenodd" clip-rule="evenodd"
viewBox="0 0 1000 1414.29"
 xmlns:xlink="http://www.w3.org/1999/xlink">
 <g id="Layer_x0020_1">
  <metadata id="CorelCorpID_0Corel-Layer"/>
  <rect fill="none" stroke="#006699" stroke-width="4.7619" x="313.971" y="94.89" width="383.333" height="150" rx="7.73619" ry="7.73619"/>
  <text x="336.999" y="140.16"  fill="#1F1A17" font-weight="normal" font-size="20.1586" font-family="Arial">Sprawdź, czy poszkodowany reaguje, </text>
  <text x="446.81" y="162.681"  fill="#1F1A17" font-weight="normal" font-size="20.1586" font-family="Arial">czy oddycha, </text>
  <text x="372.853" y="185.201"  fill="#1F1A17" font-weight="normal" font-size="20.1586" font-family="Arial">czy nie występują pojedyncze </text>
  <text x="447.366" y="207.722"  fill="#1F1A17" font-weight="normal" font-size="20.1586" font-family="Arial">westchnienia</text>
  <rect fill="none" stroke="#006699" stroke-width="4.7619" x="313.971" y="361.557" width="383.333" height="133.333" rx="7.73619" ry="7.73619"/>
  <text x="431.696" y="406.327"  fill="#1F1A17" font-weight="normal" font-size="20.1586" font-family="Arial">Rozpocznij RKO</text>
  <text x="428.325" y="428.848"  fill="#1F1A17" font-weight="normal" font-size="20.1586" font-family="Arial">schematem 30:2;</text>
  <text x="377.908" y="451.368"  fill="#1F1A17" font-weight="normal" font-size="20.1586" font-family="Arial">Podłącz defibrylator/monitor; </text>
  <text x="352.179" y="473.889"  fill="#1F1A17" font-weight="normal" font-size="20.1586" font-family="Arial">Minimalizuj przerwy w resuscytacji</text>
  <rect fill="none" stroke="#990000" stroke-width="4.7619" x="645.4" y="266.319" width="312.124" height="66.6667" rx="7.73619" ry="7.73619"/>
  <text x="668.893" y="309.089"  fill="#1F1A17" font-weight="normal" font-size="20.1586" font-family="Arial">Wezwij zespół resuscytacyjny</text>
  <path fill="#006699" fill-rule="nonzero" d="M497.725 262.107l0 66.1152 -8.8181 0 16.9414 16.8429 16.9414 -16.8429 -8.8181 0 0 -66.1152 -16.2467 0zm0 33.0581m-4.40905 33.0571m4.06143 8.4219m16.9414 0m4.0619 -8.4219m-4.40905 -33.0571m-8.12333 -33.0581"/>
  <path fill="#990000" fill-rule="nonzero" d="M531.095 303.531l16.209 17.9943 0 -9.75667 62.82 0 0 9.75667 16.209 -17.9943 -16.209 -17.9943 0 9.75667 -62.82 0 0 -9.75667 -16.209 17.9943zm8.10429 8.99714m8.10476 4.11857m31.41 -4.8781m31.41 4.8781m8.10429 -4.11857m0 -17.9943m-8.10429 -4.11905m-31.41 4.87857m-31.41 -4.87857m-8.10476 4.11905"/>
  <rect fill="none" stroke="#990000" stroke-width="4.7619" x="313.971" y="573.461" width="383.333" height="71.4286" rx="7.73619" ry="7.73619"/>
  <text x="459.154" y="616.375"  fill="#1F1A17" font-weight="normal" font-size="20.1586" font-family="Arial">Oceń rytm</text>
  <path fill="#006699" fill-rule="nonzero" d="M497.305 511.35l0 33.54 -7.9419 0 16.6667 16.49 16.6667 -16.49 -7.9419 0 0 -33.54 -17.4495 0zm0 16.7695m-3.97095 16.7705m4.36238 8.24524m16.6667 0m4.36286 -8.24524m-3.97143 -16.7705m-8.72476 -16.7695"/>
  <path fill="#006699" d="M214.124 711.714l283.181 0 0 -16.8243 -283.181 0 0 16.8243zm0 0l0 33.54 -7.9419 0 16.6667 16.49 16.6667 -16.49 -7.9419 0 0 -33.54 -17.4495 0zm283.18 -50.3181l0 83.4943 -8.89286 0 16.6667 16.3405 16.6667 -16.3405 -8.89286 0 0 -83.4943 -15.5476 0zm298.42 50.3181l-283.181 0 0 -16.8243 283.181 0 0 16.8243zm0 0l0 33.54 7.9419 0 -16.6667 16.49 -16.6667 -16.49 7.9419 0 0 -33.54 17.4495 0z"/>
  <rect fill="none" stroke="#339966" stroke-width="4.7619" x="380.638" y="778.223" width="233.333" height="116.667" rx="7.73619" ry="7.73619"/>
  <text x="465.935" y="822.494"  fill="#1F1A17" font-weight="normal" font-size="20.1586" font-family="Arial">Powrót </text>
  <text x="426.694" y="845.014"  fill="#1F1A17" font-weight="normal" font-size="20.1586" font-family="Arial">spontanicznego </text>
  <text x="459.207" y="867.535"  fill="#1F1A17" font-weight="normal" font-size="20.1586" font-family="Arial">krążenia</text>
  <rect fill="none" stroke="#339966" stroke-width="4.7619" x="380.638" y="978.597" width="234.994" height="296.883" rx="7.73619" ry="7.73619"/>
  <text x="409.433" y="1019.62"  fill="#1F1A17" font-weight="normal" font-size="16.7986" font-family="Arial">Natychmiastowa opieka </text>
  <text x="430.908" y="1038.39"  fill="#1F1A17" font-weight="normal" font-size="16.7986" font-family="Arial">poresuscytacyjna:</text>
  <text x="387.688" y="1072.88"  fill="#1F1A17" font-weight="normal" font-size="8.25238" font-family="Wingdings"></text>
  <text x="387.688" y="1102.91"  fill="#1F1A17" font-weight="normal" font-size="8.25238" font-family="Wingdings"></text>
  <text x="387.688" y="1132.93"  fill="#1F1A17" font-weight="normal" font-size="8.25238" font-family="Wingdings"></text>
  <text x="387.688" y="1162.96"  fill="#1F1A17" font-weight="normal" font-size="8.25238" font-family="Wingdings"></text>
  <text x="408.255" y="1072.88"  fill="#1F1A17" font-weight="normal" font-size="13.439" font-family="Arial">kontroluj wentylację i  </text>
  <text x="408.255" y="1087.89"  fill="#1F1A17" font-weight="normal" font-size="13.439" font-family="Arial">oksygenację</text>
  <text x="408.255" y="1102.91"  fill="#1F1A17" font-weight="normal" font-size="13.439" font-family="Arial">wykonaj 12-odprowadzeniowe </text>
  <text x="408.255" y="1117.92"  fill="#1F1A17" font-weight="normal" font-size="13.439" font-family="Arial">EKG</text>
  <text x="408.255" y="1132.93"  fill="#1F1A17" font-weight="normal" font-size="13.439" font-family="Arial">lecz przyczynę zatrzymania </text>
  <text x="408.255" y="1147.95"  fill="#1F1A17" font-weight="normal" font-size="13.439" font-family="Arial">krążenia</text>
  <text x="408.255" y="1162.96"  fill="#1F1A17" font-weight="normal" font-size="13.439" font-family="Arial">kontroluj temperaturę lub </text>
  <text x="408.255" y="1177.97"  fill="#1F1A17" font-weight="normal" font-size="13.439" font-family="Arial">zastosuj terapeutyczną </text>
  <text x="408.255" y="1192.99"  fill="#1F1A17" font-weight="normal" font-size="13.439" font-family="Arial">hipotermię</text>
  <text x="387.688" y="1087.89"  fill="none" font-weight="normal" font-size="8.25238" font-family="Wingdings"></text>
  <text x="387.688" y="1117.92"  fill="none" font-weight="normal" font-size="8.25238" font-family="Wingdings"></text>
  <text x="387.688" y="1147.95"  fill="none" font-weight="normal" font-size="8.25238" font-family="Wingdings"></text>
  <text x="387.688" y="1177.97"  fill="none" font-weight="normal" font-size="8.25238" font-family="Wingdings"></text>
  <text x="387.688" y="1192.99"  fill="none" font-weight="normal" font-size="8.25238" font-family="Wingdings"></text>
  <path fill="#339966" fill-rule="nonzero" d="M496.131 911.527l0 33.54 -7.9419 0 16.6667 16.49 16.6667 -16.49 -7.9419 0 0 -33.54 -17.4495 0zm0 16.77m-3.97095 16.77m4.36238 8.24524m16.6667 0m4.36286 -8.24524m-3.97143 -16.77m-8.72476 -16.77"/>
  <rect fill="none" stroke="#006699" stroke-width="4.7619" x="97.3048" y="778.223" width="233.333" height="116.667" rx="7.73619" ry="7.73619"/>
  <text x="126.028" y="822.494"  fill="#1F1A17" font-weight="normal" font-size="20.1586" font-family="Arial">Rytm do defibrylacji</text>
  <text x="129.009" y="845.014"  fill="#1F1A17" font-weight="normal" font-size="20.1586" font-family="Arial">(VF / VT bez tętna)</text>
  <path fill="#006699" fill-rule="nonzero" d="M213.971 911.453l0 33.54 -7.9419 0 16.6667 16.49 16.6667 -16.49 -7.9419 0 0 -33.54 -17.4495 0zm0 16.77m-3.97095 16.77m4.36238 8.24524m16.6667 0m4.36286 -8.24524m-3.97143 -16.77m-8.72476 -16.77"/>
  <rect fill="none" stroke="#006699" stroke-width="4.7619" x="100.253" y="978.223" width="233.333" height="66.6661" rx="7.73619" ry="7.73619"/>
  <text x="121.116" y="1020.99"  fill="#1F1A17" font-weight="normal" font-size="20.1586" font-family="Arial">Dokonaj 1 defibrylacji</text>
  <path fill="#006699" fill-rule="nonzero" d="M213.971 1061.45l0 33.54 -7.9419 0 16.6667 16.49 16.6667 -16.49 -7.9419 0 0 -33.54 -17.4495 0zm0 16.77m-3.97095 16.77m4.36238 8.24524m16.6667 0m4.36286 -8.24524m-3.97143 -16.77m-8.72476 -16.77"/>
  <rect fill="none" stroke="#006699" stroke-width="4.7619" x="97.3048" y="1128.22" width="233.333" height="150" rx="7.73619" ry="7.73619"/>
  <text x="118.183" y="1173.49"  fill="#1F1A17" font-weight="normal" font-size="20.1586" font-family="Arial">Natychmiast podejmij </text>
  <text x="120.988" y="1196.01"  fill="#1F1A17" font-weight="normal" font-size="20.1586" font-family="Arial">RKO przez 2 minuty;</text>
  <text x="123.242" y="1218.53"  fill="#1F1A17" font-weight="normal" font-size="20.1586" font-family="Arial"> minimalizuj przerwy </text>
  <text x="148.44" y="1241.06"  fill="#1F1A17" font-weight="normal" font-size="20.1586" font-family="Arial">w resuscytacji.</text>
  <path fill="#990000" d="M47.6086 612.3l233.79 0 0 8.87429 17.2295 -16.6667 -17.2295 -16.6667 0 8.87381 -233.79 0 0 15.5852zm0.629524 699.097l16.08 0 0 -699.097 -16.08 0 0 699.097zm182.24 16.8457l-182.24 0 0 -16.8457 182.24 0 0 16.8457zm-16.08 -34.4571l16.08 0 0 17.2286 -16.08 0 0 -17.2286z"/>
  <rect fill="none" stroke="#006699" stroke-width="4.7619" x="662.578" y="778.037" width="233.333" height="116.667" rx="7.73619" ry="7.73619"/>
  <text x="675.049" y="822.308"  fill="#1F1A17" font-weight="normal" font-size="20.1586" font-family="Arial">Rytm nie do defibrylacji</text>
  <text x="704.746" y="844.828"  fill="#1F1A17" font-weight="normal" font-size="20.1586" font-family="Arial">(asystolia / PEA)</text>
  <rect fill="none" stroke="#006699" stroke-width="4.7619" x="662.578" y="1128.04" width="233.333" height="150" rx="7.73619" ry="7.73619"/>
  <text x="683.456" y="1173.31"  fill="#1F1A17" font-weight="normal" font-size="20.1586" font-family="Arial">Natychmiast podejmij </text>
  <text x="686.26" y="1195.83"  fill="#1F1A17" font-weight="normal" font-size="20.1586" font-family="Arial">RKO przez 2 minuty;</text>
  <text x="688.515" y="1218.35"  fill="#1F1A17" font-weight="normal" font-size="20.1586" font-family="Arial"> minimalizuj przerwy </text>
  <text x="713.713" y="1240.87"  fill="#1F1A17" font-weight="normal" font-size="20.1586" font-family="Arial">w resuscytacji.</text>
  <path fill="#006699" d="M781.954 1061.85l0 33.54 -7.9419 0 16.6667 16.49 16.6667 -16.49 -7.9419 0 0 -33.54 -17.4495 0zm0 0l17.4495 0 0 -150.156 -17.4495 0 0 150.156z"/>
  <path fill="#990000" d="M962.494 612.3l-233.79 0 0 8.87429 -17.2295 -16.6667 17.2295 -16.6667 0 8.87381 233.79 0 0 15.5852zm-0.629524 699.097l-16.08 0 0 -699.097 16.08 0 0 699.097zm-182.24 16.8457l182.24 0 0 -16.8457 -182.24 0 0 16.8457zm16.08 -34.4571l-16.08 0 0 17.2286 16.08 0 0 -17.2286z"/>
 </g>
</svg>
